<svg width="100" height="100" viewBox="0 0 100 100" fill="none" xmlns="http://www.w3.org/2000/svg">
  <!-- Rounded background box to match the clean, professional contrast in the original logo file -->
  <rect width="100" height="100" rx="22" fill="#ffffff" />
  
  <g transform="translate(0, 0)">
    <!-- 3D Ribbon 'A' Base Structure with elegant gradients & curls -->
    <path 
      d="M 22,76 C 14,76 16,62 26,44 C 36,26 44,12 50,12 C 56,12 64,26 74,44 C 84,62 86,76 78,76 C 72,76 68,68 64,54 C 60,40 54,34 50,34 C 46,34 40,40 36,54 C 32,68 28,76 22,76 Z" 
      fill="#002c5b" 
    />

    <!-- Ribbon bottom-left inner curl with crisp outline -->
    <path 
      d="M 22,76 C 26,76 30,70 28,64 C 26,58 20,58 18,64 C 16,70 18,76 22,76 Z" 
      fill="#002c5b"
      stroke="#ffffff"
      stroke-width="2"
    />

    <!-- Ribbon bottom-right inner curl with crisp outline -->
    <path 
      d="M 78,76 C 74,76 70,70 72,64 C 74,58 80,58 82,64 C 84,70 82,76 78,76 Z" 
      fill="#002c5b"
      stroke="#ffffff"
      stroke-width="2"
    />

    <!-- Inner crossbar arch loop of the 'A' -->
    <path 
      d="M 34,54 C 40,42 60,42 66,54 C 60,49 40,49 34,54 Z" 
      fill="#002c5b"
      stroke="#ffffff"
      stroke-width="1.5"
    />

    <!-- Background gap cutout for the sweeping arrow -->
    <path 
      d="M 10,54 C 8,42 24,34 36,46 C 48,58 72,56 86,34" 
      stroke="#ffffff" 
      stroke-width="8" 
      stroke-linecap="round" 
      fill="none" 
    />

    <!-- Main sweeping arrow wrapping from mid-left to top-right -->
    <path 
      d="M 10,54 C 8,42 24,34 36,46 C 48,58 72,56 86,34" 
      stroke="#002c5b" 
      stroke-width="5" 
      stroke-linecap="round" 
      fill="none" 
    />

    <!-- Arrowhead background gap cutout -->
    <path 
      d="M 76,38 L 92,26 L 82,48 Z" 
      fill="#ffffff" 
      stroke="#ffffff" 
      stroke-width="3.2" 
      stroke-linejoin="round" 
    />

    <!-- The main elegant Arrowhead pointing forward -->
    <path 
      d="M 77,36 L 91,24 L 83,46 Z" 
      fill="#002c5b" 
      stroke="#002c5b" 
      stroke-width="1" 
      stroke-linejoin="round" 
    />
  </g>
</svg>
